<svg id="visual" viewBox="0 0 1080 540" width="1080" height="540" xmlns="http://www.w3.org/2000/svg" xmlns:xlink="http://www.w3.org/1999/xlink" version="1.1"><rect x="0" y="0" width="1080" height="540" fill="#313638"></rect><path d="M0 424L45 417.8C90 411.7 180 399.3 270 400.2C360 401 450 415 540 431.3C630 447.7 720 466.3 810 476.3C900 486.3 990 487.7 1035 488.3L1080 489L1080 541L1035 541C990 541 900 541 810 541C720 541 630 541 540 541C450 541 360 541 270 541C180 541 90 541 45 541L0 541Z" fill="#CCCBB4" stroke-linecap="round" stroke-linejoin="miter"></path></svg>